<?xml version="1.0" encoding="utf-8"?>
<!-- Generator: Adobe Illustrator 26.4.1, SVG Export Plug-In . SVG Version: 6.00 Build 0)  -->
<svg version="1.1" id="레이어_1" xmlns="http://www.w3.org/2000/svg" xmlns:xlink="http://www.w3.org/1999/xlink" x="0px"
	 y="0px" viewBox="0 0 843.38 83.72" style="enable-background:new 0 0 843.38 83.72;" xml:space="preserve">
<style type="text/css">
	.st0{fill:#FF76F7;}
</style>
<g>
	<path class="st0" d="M377.06,8.4c0,0,50.36-5.12,101.51-5.71l3.48,13.38c0,0-8.07,0.79-20.46,2.23c0,0,13.25,3.48,20,19.48
		s4.2,29.71-7.28,37.25c-11.48,7.54-122.3,5.71-122.3,5.71s4.79-23.87,10.1-34.56c0,0,28.92,5.71,40.72-8
		c11.8-13.71-5.9-19.8-32.2-14.43C370.63,23.75,373.52,12.6,377.06,8.4z"/>
	<polygon class="st0" points="35.09,0 0,80.29 74.59,82.75 68.63,42.35 95.44,82.75 113.44,82.75 136.1,5.44 132.6,3.88 
		110.46,70.45 106.58,3.37 	"/>
	<polygon class="st0" points="140.71,6.02 127.68,83.72 234.13,80.74 233.02,72.06 159.56,75.43 156.65,58.21 220.13,57.17 
		218.61,51.35 156.1,53.42 155.54,49.53 233.58,47.2 227.89,6.02 	"/>
	<polygon class="st0" points="235.25,5.96 253.04,79.34 343.17,79.34 362.68,2.94 315.02,1.81 313.38,15.8 306.56,2.33 
		298.96,21.32 296.89,0.6 	"/>
	<polygon class="st0" points="622.67,2.65 621.32,80.29 723.5,80.29 723.5,72.62 690.47,72.2 698.82,3.5 	"/>
	<path class="st0" d="M613.64,37.42c0-0.01,0-0.01,0-0.02c-0.58-6.54-2.55-14.93-8.24-21.53C594.4,3.13,570.61,2.33,570.61,2.33
		l-0.02,0.11c-4.78-0.68-11.54,0-11.54,0l-0.3,0.62l0.3-0.74c-41.25,1.72-56.35,22.36-61.77,35.09h0c0,0,0,0,0,0
		c0,0.01-0.01,0.01-0.01,0.02c-0.01,0.02-0.04,0.09-0.09,0.21c-0.42,0.99-0.77,1.94-1.08,2.82c-2.16,5.95-6.26,19.18-3.04,26.34
		c0.01,0.02,0.03,0.04,0.04,0.06c3.76,10.79,20.98,11.49,51.45,10.68c41.75-1.1,51.69-2.91,57.33-6.47c1.9-1.2,3.46-2.67,4.75-4.27
		l0,0c0,0,0.01-0.02,0.04-0.04c0,0,0-0.01,0.01-0.01c0.07-0.08,0.23-0.29,0.45-0.59c0.7-0.93,1.31-1.9,1.84-2.87
		C611.63,58.62,615.41,49.5,613.64,37.42z M586.69,67.33l-73.51,0.56l5.34-17.6h16.27l11.77-38.09h29.14l-6.29,38.09h19
		L586.69,67.33z"/>
	<path class="st0" d="M758.75,48.06l84.2,3.02c0,0-0.26-40.13-40.66-47.22s-75.81,1.84-79.35,36.07c0,0-5.38,15.08,28.07,16.46
		c33.45,1.38,54.43,1.11,54.43,1.11s5.38-0.52,5.25,4.98s-2.23,6.43-10.23,6.69c0,0-6.1,0.46-6.49-8.72l-58.23-2.23
		c0,0-1.05,20.26,16.26,22.23c17.31,1.97,48.86,1.9,74.96,0.79c0,0,16.39-1.31,16.39-17.25c0,0,1.57-9.18-16.2-9.84
		c-17.77-0.66-66.48-1.9-66.48-1.9s-5.33,0.35-6.03-4.37c-0.7-4.72,2.1-4.2,2.1-4.2S758.66,42.99,758.75,48.06z"/>
</g>
</svg>
