<?xml version="1.0" encoding="utf-8"?>
<!-- Generator: Adobe Illustrator 26.4.1, SVG Export Plug-In . SVG Version: 6.00 Build 0)  -->
<svg version="1.1" id="Layer_1" xmlns="http://www.w3.org/2000/svg" xmlns:xlink="http://www.w3.org/1999/xlink" x="0px" y="0px"
	 viewBox="0 0 39 30" style="enable-background:new 0 0 39 30;" xml:space="preserve">
<style type="text/css">
	.st0{clip-path:url(#SVGID_00000092415031250235532660000017077087267679256493_);}
</style>
<g>
	<defs>
		<rect id="SVGID_1_" y="0" width="38.6" height="30"/>
	</defs>
	<clipPath id="SVGID_00000148619988160785907810000000531682043711111847_">
		<use xlink:href="#SVGID_1_"  style="overflow:visible;"/>
	</clipPath>
	<g style="clip-path:url(#SVGID_00000148619988160785907810000000531682043711111847_);">
		<path d="M17.7,8.4l0,1.2H13l0-1.1c0-4.1-2.7-4-3.2-4c-0.7,0-3.2,0.1-3.2,4v3.2h4.4V16H6.5v13.4H1.8V16H0v-4.3h1.8V8.4
			c0-3.2,0.8-8.4,8-8.4C17.6,0,17.7,6,17.7,8.4z M17.7,11.7v17.7H13V11.7H17.7z"/>
		<path d="M35.8,13.4c1.7,1.6,2.8,4.1,2.8,7.1c0,3-1.2,5.4-2.8,7C34.3,28.9,32.2,30,29,30s-5.3-1.1-6.7-2.5c-1.7-1.6-2.8-4.1-2.8-7
			s1.2-5.4,2.8-7.1c1.4-1.4,3.6-2.5,6.7-2.5S34.3,12,35.8,13.4z M33.7,20.4c0-2.8-2-5.1-4.7-5.1s-4.7,2.3-4.7,5.1
			c0,2.8,2,5.1,4.7,5.1S33.7,23.2,33.7,20.4z"/>
	</g>
</g>
</svg>
