<?xml version="1.0" encoding="utf-8"?>
<!-- Generator: Adobe Illustrator 26.4.1, SVG Export Plug-In . SVG Version: 6.00 Build 0)  -->
<svg version="1.1" id="Layer_1" xmlns="http://www.w3.org/2000/svg" xmlns:xlink="http://www.w3.org/1999/xlink" x="0px" y="0px"
	 viewBox="0 0 300 30" style="enable-background:new 0 0 300 30;" xml:space="preserve">
<style type="text/css">
	.st0{clip-path:url(#SVGID_00000020389065963287068890000004169019244982519742_);}
	.st1{fill:#FF2D92;}
</style>
<g>
	<defs>
		<rect id="SVGID_1_" x="-0.2" y="0.5" width="300" height="29"/>
	</defs>
	<clipPath id="SVGID_00000012461059924433647090000011200481644682952576_">
		<use xlink:href="#SVGID_1_"  style="overflow:visible;"/>
	</clipPath>
	<g style="clip-path:url(#SVGID_00000012461059924433647090000011200481644682952576_);">
		<path class="st1" d="M84.2,2.6C87,2.3,89.7,2,92.4,1.8c4.1-0.4,8.1-0.7,12.2-1c1.5-0.1,1.7,0,1.8,1.5c0.1,1.6,0.3,3.2,0.4,4.8
			c0.1,0,0.2,0.1,0.4,0.1c0.8-1.8,1.6-3.7,2.5-5.7c0.7,1.4,1.4,2.6,2.1,3.8c0.1,0,0.2,0,0.4,0c0.1-0.7,0.3-1.4,0.3-2.1
			c0.1-2.1,0.1-2.1,2.2-2.1c4.8,0.1,9.6,0.3,14.3,0.4c0.2,0,0.4,0.1,0.7,0.1c-0.8,2.9-1.5,5.8-2.2,8.7c-1.4,5.5-2.9,10.9-4.3,16.4
			c-0.3,1-0.6,1.4-1.7,1.4c-9.9,0-19.7,0-29.6,0c-1.1,0-1.5-0.4-1.7-1.4c-1.4-5.7-2.9-11.5-4.3-17.2C85.2,7.2,84.7,5,84.2,2.6
			L84.2,2.6z"/>
		<path class="st1" d="M38,1.7c0.5,7.5,0.9,14.8,1.3,22.2c0.1,0,0.3,0.1,0.4,0.1c2.5-7.3,5-14.5,7.5-21.9c0.9,0,1.4,0.2,1,1.3
			c-2.2,7.1-4.3,14.2-6.5,21.3c-0.4,1.2-0.8,2.4-1.1,3.6c-0.2,0.8-0.6,1-1.2,0.9c-0.1,0-0.2,0-0.3,0c-1.7,0-3.7,0.4-5.1-0.2
			c-1.3-0.6-2-2.5-3-3.8c-1.9-2.7-3.7-5.4-5.6-8.2c-0.2-0.3-0.4-0.5-0.6-0.8c-0.1,0-0.3,0.1-0.4,0.1c0.6,4.2,1.2,8.5,1.9,12.9
			c-8.9-0.3-17.7-0.6-26.7-0.8c1-2.2,1.8-4.1,2.7-6c3.1-6.9,6.2-13.8,9.3-20.7c0.4-1,1-1.1,2-1.1c4.3,0.2,8.6,0.3,12.9,0.5
			C30.4,1.2,34.2,1.5,38,1.7L38,1.7z"/>
		<path class="st1" d="M299.8,18.3c-10.1-0.4-20.1-0.7-30-1c-0.1-0.2-0.2-0.2-0.2-0.3c-0.3-0.4-0.5-0.8-0.8-1.2
			c-0.2,0.2-0.7,0.3-0.7,0.5c0,0.5-0.1,1.2,0.2,1.5c0.4,0.4,1.1,0.9,1.7,0.9c5.3,0.2,10.6,0.3,15.9,0.5c3.1,0.1,6.1,0.2,9.2,0.3
			c1,0.1,2,0.4,3,0.8c1.1,0.5,1.8,1.4,1.7,2.7c-0.2,3.3-2.2,5.6-6,5.7c-7.7,0.2-15.4,0.1-23.1,0.1c-1.2,0-2.4-0.2-3.6-0.3
			c-3.6-0.2-6-3.7-5.7-7.5c1.9,0,3.7,0,5.6,0c1.8,0,3.5,0.2,5.3,0.3c2.9,0.1,5.8,0.2,8.6,0.3c0.8,0,1.1,0.2,1.3,1
			c0.5,1.9,3.8,2.8,5.2,1.4c0.5-0.5,0.6-1.6,0.4-2.3c-0.2-0.5-1.1-1-1.8-1.1c-3-0.1-6,0-9.1-0.1c-4.8-0.2-9.6-0.4-14.4-0.8
			c-1.4-0.1-2.9-0.8-4.2-1.5c-1.3-0.7-1.9-1.9-1.8-3.6c0.9-8.2,7.2-12,14.3-13c5.5-0.8,11-0.4,16.4,1c6.3,1.6,10,5.9,11.7,11.9
			c0.2,0.6,0.3,1.2,0.4,1.9C299.5,16.8,299.6,17.4,299.8,18.3L299.8,18.3z"/>
		<path class="st1" d="M173,19.9c-0.6,0.1-1.1,0.2-1.6,0.3c0.1,1.1,0.3,2.1,0.4,3.2c0.1,2.9-1.6,4.5-4.5,4.6
			c-10.4,0.1-20.8,0.2-31.2,0.3c-1.3,0-2.7-0.1-4-0.4c-2.4-0.4-3.6-2.2-3.3-4.9c1.5,0,3,0,4.6,0c1.4,0,2.8-0.1,4.3-0.1
			c0.8,0,1.2,0.2,1.3,1c0.1,0.5,0.6,1.2,1.1,1.4c1.1,0.5,2.4,0.9,3.6,1c4.7,0.1,9.4,0.1,14.1-0.1c2.1-0.1,4.3-0.3,6.4-0.8
			c3-0.8,2.6-1.7,2.5-4.3c0-0.2-0.5-0.5-0.8-0.6c-1.4-0.1-2.8-0.2-4.1-0.2c-10.8-0.2-21.5-0.4-32.3-0.5c-0.4,0-0.8,0-1.6,0
			c0.5-1.7,0.9-3.3,1.4-4.8c1.2-3.9,2.4-7.7,3.5-11.6c0.2-0.8,0.6-1.2,1.6-1.2c11.6,0,23.3,0,34.9,0c1.1,0,1.5,0.4,1.6,1.4
			c0.6,4.5,1.2,9,1.8,13.5C172.9,17.9,173,18.9,173,19.9L173,19.9z"/>
		<path class="st1" d="M78.1,18.5c0.1,0.6,0.3,1.1,0.5,1.8C71,20.5,63.5,20.6,56,20.7c0.3,1.8,0.6,3.4,0.8,5c0.1,0.7,0.5,1,1.2,1
			c4.6-0.2,9.1-0.4,13.7-0.6c3.8-0.2,7.6-0.3,11.5-0.5c0.2,0.8,0.4,1.5,0.4,2.3c0,0.3-0.4,0.6-0.7,0.8c-0.2,0.1-0.5,0-0.8,0
			C74.1,28.8,66,29,57.9,29.2c-3.7,0.1-7.3,0.2-11,0.3c-0.4,0-0.8,0-1.3-0.1c0.2-1,0.3-2,0.4-2.9c1.2-6.7,2.4-13.4,3.5-20.1
			c0.2-1,0.4-2,0.5-3c0.1-0.6,0.3-1,1-1c10,0,20.1,0,30.1,0.1c0,0,0.1,0,0.3,0.1c0.7,4.6,1.3,9.3,2,14.1c-2.1,0.1-4.1,0.3-6,0.4
			c-6.8,0.2-13.6,0.3-20.4,0.5c-0.4,0-0.8,0-1.1,0.2c-0.2,0.1-0.3,0.6-0.2,0.7c0.2,0.2,0.6,0.5,0.9,0.5c1.7,0,3.4-0.1,5-0.2
			c5.3-0.2,10.7-0.3,16-0.5C77.8,18.4,77.9,18.4,78.1,18.5L78.1,18.5z"/>
		<path class="st1" d="M247.2,25.6c1.1,0,2,0,2.9,0c2.6,0.1,5.2,0.2,7.7,0.2c1.2,0,1.1,0.6,1.2,1.5c0,0.9-0.2,1.2-1.2,1.2
			c-11.4,0-22.7,0-34.1,0c-0.9,0-1.3-0.3-1.3-1.2c0.2-8.2,0.3-16.4,0.5-24.6c0-0.7,0.1-1.1,1-1.1c8.6,0.1,17.1,0.2,25.7,0.3
			c0.1,0,0.2,0.1,0.5,0.2C249.2,9.7,248.3,17.5,247.2,25.6L247.2,25.6z"/>
		<path class="st1" d="M205,20.2c0-4.2,0-8,0-11.9c0-1.6,0-1.7-1.8-1.6c-3.5,0.2-7,0.5-10.4,0.7c-0.8,0-1,0.4-1.1,1.1
			c-0.4,3.6-0.9,7.2-1.3,10.8c0,0.3-0.1,0.7-0.2,1.1h-14.1c0.4-2,0.6-3.8,1.2-5.6c2.3-7,7.3-11.3,14.4-13.2c7.5-2,14.7-1,21.6,2.4
			c5.3,2.6,8,9.4,6.7,15c-0.1,0.3-0.4,0.7-0.7,0.7C214.6,19.9,210.1,20,205,20.2L205,20.2z"/>
		<path class="st1" d="M219.4,21.4c-0.7,0.7-1.2,1.3-1.8,1.8c-3.1,2.4-6.7,3.3-10.5,4c-5.8,1.1-11.7,0.9-17.5,0.6
			c-3.5-0.1-7.1-0.5-10.3-2.1c-0.9-0.5-1.8-1.2-2.4-2c-0.8-1-0.4-1.6,1-1.6c5.3-0.1,10.6-0.3,15.9-0.4c4.9-0.1,9.8-0.3,14.7-0.3
			C212,21.4,215.5,21.4,219.4,21.4L219.4,21.4z"/>
	</g>
</g>
</svg>
