<svg width="30" height="300" viewBox="0 0 30 300" fill="none" xmlns="http://www.w3.org/2000/svg">
<g clip-path="url(#clip0_122_2878)">
<path d="M2.43175 215.642C2.14744 212.8 1.85298 210.118 1.61437 207.425C1.2539 203.355 0.954362 199.286 0.583744 195.216C0.44159 193.678 0.543129 193.543 2.06621 193.44C3.6553 193.331 5.23423 193.145 6.81823 192.995C6.85885 192.875 6.89439 192.762 6.935 192.642C5.10223 191.845 3.26945 191.048 1.20821 190.152C2.55868 189.411 3.77714 188.738 4.99561 188.07C5.00576 187.951 5.01592 187.832 5.03115 187.713C4.34576 187.604 3.67053 187.444 2.98006 187.397C0.888361 187.252 0.847745 187.268 0.893438 185.176C1.00005 180.397 1.14728 175.618 1.28436 170.844C1.28944 170.637 1.35036 170.435 1.40621 170.114C4.33561 170.864 7.21423 171.584 10.0878 172.34C15.5658 173.785 21.0286 175.276 26.5117 176.679C27.5119 176.933 27.8723 177.326 27.8673 178.408C27.8266 188.277 27.8266 198.146 27.8673 208.015C27.8673 209.098 27.4814 209.481 26.4914 209.719C20.7494 211.127 15.0277 212.624 9.29578 214.063C7.06193 214.622 4.80776 215.104 2.42668 215.653L2.43175 215.642Z" fill="#FF2D92"/>
<path d="M1.52307 261.834C9.03696 261.384 16.363 260.943 23.6839 260.503C23.7144 260.369 23.7449 260.234 23.7703 260.105C16.5001 257.604 9.22988 255.098 1.89369 252.571C1.88861 251.634 2.13231 251.214 3.15277 251.53C10.2554 253.71 17.3682 255.854 24.4759 258.008C25.6843 258.375 26.8723 258.815 28.1009 259.069C28.8726 259.23 29.0604 259.633 29.0452 260.307C29.0452 260.395 29.0452 260.477 29.0452 260.565C29.0147 262.284 29.492 264.268 28.8117 265.65C28.1618 266.965 26.3087 267.675 24.9633 268.612C22.2522 270.497 19.5259 272.35 16.8047 274.219C16.5356 274.406 16.2818 274.618 16.0178 274.815C16.0482 274.95 16.0736 275.084 16.1041 275.219C20.3535 274.597 24.6029 273.976 29.0503 273.324C28.771 282.235 28.4969 290.985 28.2126 300C26.0143 299.011 24.1053 298.152 22.1964 297.292C15.2918 294.185 8.39218 291.053 1.46215 287.998C0.477224 287.563 0.33507 287.009 0.385839 286.046C0.599071 281.743 0.705686 277.44 0.903687 273.137C1.0763 269.399 1.31492 265.671 1.52815 261.834L1.52307 261.834Z" fill="#FF2D92"/>
<path d="M18.1144 0.0464951C17.7641 10.1485 17.4138 20.1521 17.0685 30.0315C16.8756 30.1764 16.8452 30.2023 16.8096 30.2282C16.4136 30.4871 16.0125 30.746 15.6165 30.9997C15.7688 31.2379 15.9161 31.6625 16.0785 31.6729C16.5964 31.6988 17.2818 31.7557 17.6016 31.4606C18.0484 31.0515 18.4647 30.3421 18.4901 29.7467C18.6932 24.4497 18.7947 19.1528 18.947 13.8558C19.0333 10.7957 19.0993 7.7356 19.2922 4.68584C19.3582 3.68133 19.6781 2.64577 20.0842 1.71893C20.5767 0.595338 21.4753 -0.0829553 22.7953 0.0102461C26.0903 0.232894 28.4155 2.19531 28.512 5.96997C28.7049 13.6746 28.5881 21.3896 28.5678 29.0943C28.5678 30.2955 28.3698 31.4916 28.3038 32.6929C28.1058 36.3329 24.6129 38.7096 20.7646 38.4093C20.7646 36.5504 20.729 34.6708 20.7747 32.7965C20.8153 31.0308 20.9575 29.2703 21.0336 27.5047C21.1555 24.6206 21.2824 21.7417 21.3636 18.8577C21.3839 18.1069 21.5819 17.7185 22.3739 17.527C24.2626 17.0661 25.1866 13.6798 23.7244 12.3335C23.2167 11.8675 22.0998 11.7329 21.4144 11.9504C20.9169 12.1109 20.3838 13.0843 20.3584 13.7212C20.2315 16.7347 20.3432 19.7586 20.2315 22.7721C20.0538 27.5875 19.8609 32.4133 19.4598 37.2132C19.3379 38.6526 18.6627 40.1128 17.9519 41.4021C17.2208 42.7276 16.0176 43.3386 14.3524 43.1677C6.12264 42.3134 2.35555 36.0119 1.30462 28.8199C0.497384 23.2951 0.868001 17.8066 2.27431 12.4423C3.91417 6.1719 8.14326 2.48526 14.1391 0.786925C14.7433 0.616056 15.3728 0.528016 15.9922 0.414103C16.6065 0.30019 17.2259 0.206987 18.1093 0.0568294L18.1144 0.0464951Z" fill="#FF2D92"/>
<path d="M19.7693 126.785C19.8759 127.355 19.9724 127.847 20.0638 128.349C21.1858 128.22 22.2113 128.018 23.247 127.997C26.1003 127.94 27.7655 129.561 27.8011 132.486C27.928 142.873 28.0295 153.26 28.1057 163.646C28.1158 164.972 27.9584 166.318 27.7554 167.628C27.3797 170.031 25.5824 171.273 22.8409 170.942C22.8409 169.441 22.8561 167.908 22.8409 166.37C22.8206 164.946 22.7749 163.527 22.714 162.103C22.6835 161.353 22.8866 160.949 23.704 160.762C24.2269 160.643 24.8767 160.151 25.0747 159.66C25.5367 158.526 26.014 157.288 26.0292 156.087C26.1003 151.396 26.08 146.705 25.9277 142.013C25.8566 139.88 25.6027 137.705 25.0798 135.65C24.3132 132.662 23.4298 133.045 20.8203 133.133C20.6172 133.139 20.2872 133.63 20.2669 133.92C20.1501 135.293 20.079 136.67 20.0536 138.047C19.8658 148.822 19.6881 159.592 19.5104 170.367C19.5053 170.787 19.5104 171.211 19.5104 171.941C17.7639 171.429 16.2104 170.994 14.667 170.523C10.8085 169.347 6.9602 168.136 3.09664 166.981C2.25894 166.732 1.86802 166.349 1.8731 165.376C1.90356 153.736 1.90356 142.096 1.87309 130.456C1.87309 129.343 2.27417 128.96 3.30479 128.831C7.80297 128.271 12.291 127.634 16.7892 127.044C17.7436 126.92 18.7083 126.873 19.7846 126.78L19.7693 126.785Z" fill="#FF2D92"/>
<path d="M18.3129 221.685C18.8663 221.545 19.4552 221.395 20.1457 221.219C20.2878 228.83 20.43 236.286 20.5721 243.867C22.4049 243.561 23.9737 243.302 25.5374 243.044C26.2228 242.93 26.5477 242.588 26.5071 241.822C26.2786 237.265 26.0755 232.703 25.8674 228.142C25.6948 224.32 25.5374 220.499 25.3698 216.611C26.1872 216.455 26.9132 216.238 27.6494 216.212C27.9235 216.202 28.2688 216.585 28.4719 216.869C28.5937 217.04 28.4972 217.372 28.5023 217.631C28.6851 225.729 28.8628 233.827 29.0506 241.925C29.1369 245.586 29.2385 249.247 29.3248 252.907C29.3349 253.285 29.2892 253.663 29.2639 254.207C28.2434 254.057 27.3092 253.938 26.3852 253.777C19.6887 252.597 12.9922 251.406 6.29576 250.23C5.30067 250.054 4.31067 249.878 3.30543 249.775C2.65558 249.707 2.31543 249.5 2.31543 248.76C2.34081 238.72 2.35097 228.675 2.3662 218.635C2.3662 218.599 2.39666 218.557 2.47281 218.366C7.06237 217.708 11.7382 217.04 16.5867 216.347C16.7187 218.475 16.8964 220.427 16.9472 222.384C17.13 229.188 17.267 235.996 17.4346 242.8C17.4447 243.183 17.46 243.598 17.6224 243.924C17.7037 244.089 18.2266 244.224 18.3484 244.126C18.5972 243.913 18.851 243.535 18.851 243.225C18.8409 241.547 18.7495 239.864 18.6987 238.187C18.5312 232.848 18.3687 227.515 18.2113 222.177C18.2113 222.053 18.257 221.928 18.3078 221.695L18.3129 221.685Z" fill="#FF2D92"/>
<path d="M25.3901 52.5866C25.3901 51.4889 25.3748 50.5982 25.3901 49.7077C25.4408 47.1239 25.5627 44.5453 25.5475 41.9616C25.5424 40.7655 26.1973 40.8225 27.0045 40.7914C27.8676 40.7552 28.1824 41.0399 28.1773 41.9564C28.1519 53.3322 28.1519 64.7027 28.1773 76.0785C28.1773 77.0157 27.9133 77.3626 26.9538 77.3419C18.7494 77.1555 10.5502 77.0105 2.34582 76.8604C1.67566 76.85 1.23904 76.762 1.2492 75.8869C1.37612 67.3176 1.4675 58.743 1.57412 50.1737C1.57412 50.096 1.62489 50.0132 1.75181 49.6559C9.48908 50.6138 17.2873 51.5821 25.385 52.5866L25.3901 52.5866Z" fill="#FF2D92"/>
<path d="M20.0135 94.853C15.8454 94.853 11.9767 94.8375 8.11318 94.8582C6.46825 94.8686 6.43779 94.9048 6.5444 96.6187C6.76271 100.098 7.03179 103.578 7.24502 107.057C7.29071 107.824 7.62072 108.046 8.33657 108.124C11.931 108.528 15.5154 108.989 19.0997 109.439C19.4297 109.48 19.7546 109.569 20.1811 109.657L20.1811 123.782C18.2265 123.368 16.3581 123.14 14.5964 122.565C7.61056 120.297 3.29516 115.29 1.36592 108.202C-0.669937 100.704 0.406375 93.4705 3.81301 86.5581C6.44286 81.2249 13.2561 78.5635 18.8052 79.9045C19.0946 79.9719 19.516 80.3498 19.5262 80.5984C19.7191 85.1911 19.8562 89.7839 20.0186 94.8582L20.0135 94.853Z" fill="#FF2D92"/>
<path d="M21.2524 80.4277C21.953 81.1216 22.5978 81.6394 23.0902 82.2762C25.4612 85.3467 26.3852 89.0075 27.0756 92.751C28.1519 98.5606 27.9641 104.437 27.7204 110.283C27.5782 113.784 27.2076 117.356 25.6185 120.577C25.1667 121.499 24.4508 122.389 23.6385 122.99C22.613 123.751 22.0393 123.347 21.9987 122.032C21.8514 116.735 21.7245 111.433 21.5925 106.136C21.4707 101.222 21.3285 96.3134 21.2524 91.3996C21.1965 87.8735 21.2422 84.3422 21.2422 80.4174L21.2524 80.4277Z" fill="#FF2D92"/>
</g>
<defs>
<clipPath id="clip0_122_2878">
<rect width="300" height="28.9995" fill="white" transform="translate(0.334961 300) rotate(-90)"/>
</clipPath>
</defs>
</svg>
